<?xml version="1.0" standalone="no"?>
<!DOCTYPE svg PUBLIC "-//W3C//DTD SVG 20010904//EN"
 "http://www.w3.org/TR/2001/REC-SVG-20010904/DTD/svg10.dtd">
<svg version="1.0" xmlns="http://www.w3.org/2000/svg"
 width="700.000000pt" height="700.000000pt" viewBox="0 0 700.000000 700.000000"
 preserveAspectRatio="xMidYMid meet">
<metadata>
Created by potrace 1.11, written by Peter Selinger 2001-2013
</metadata>
<g transform="translate(0.000000,700.000000) scale(0.100000,-0.100000)"
fill="#000000" stroke="none">
<path d="M363 6782 l-143 -3 0 -62 c0 -34 0 -1398 -1 -3031 l0 -2968 53 -51
c29 -27 154 -147 277 -266 122 -119 227 -216 231 -216 9 0 92 77 300 279 171
165 153 155 193 115 121 -121 410 -394 417 -394 4 0 106 94 225 210 120 116
220 211 224 213 6 2 62 -50 301 -281 64 -62 126 -120 137 -131 22 -18 22 -18
165 122 198 193 298 287 308 287 6 0 255 -236 437 -414 12 -12 19 -9 46 17 18
17 64 60 102 97 39 37 120 115 180 174 61 59 118 113 127 120 15 11 32 -1 140
-107 227 -222 323 -312 329 -309 4 1 104 96 224 212 119 116 221 210 226 210
7 0 235 -215 411 -389 l40 -38 31 28 c17 16 49 47 72 69 391 378 351 343 374
319 59 -63 424 -409 431 -409 4 0 111 99 236 220 125 121 249 241 276 266 l48
47 0 1518 c0 836 0 1792 0 2125 l0 607 -906 906 c-812 812 -910 906 -938 906
-261 2 -4471 4 -4573 2z m4443 -224 c3 -3 5 -397 5 -876 l0 -870 870 0 c479 0
873 -3 876 -6 3 -3 6 -902 6 -1998 l0 -1993 -124 -122 c-68 -67 -146 -142
-173 -167 l-49 -45 -111 109 c-224 218 -331 320 -341 320 -6 0 -18 -8 -26 -17
-22 -25 -416 -405 -422 -406 -6 -2 -120 105 -313 293 l-141 138 -86 -82 c-46
-44 -149 -143 -227 -219 -78 -76 -145 -135 -149 -131 -101 103 -436 419 -446
419 -9 0 -345 -315 -446 -419 -4 -4 -76 60 -160 142 -85 82 -187 181 -228 219
l-74 71 -131 -128 c-72 -70 -174 -168 -226 -218 l-95 -91 -65 63 c-36 35 -86
83 -111 107 -26 24 -98 94 -161 155 l-114 112 -94 -91 c-52 -49 -155 -148
-228 -219 -129 -125 -134 -129 -151 -111 -80 84 -425 408 -436 408 -9 0 -311
-284 -446 -419 -6 -6 -57 40 -231 212 -99 96 -118 120 -119 146 -5 221 -2
5717 3 5718 16 6 4358 1 4364 -4z m901 -826 c367 -368 674 -676 682 -685 13
-16 -32 -17 -673 -17 l-686 0 0 685 c0 377 2 685 5 685 2 0 305 -301 672 -668z"/>
<path d="M877 6116 c-2 -6 -3 -326 -3 -711 l1 -700 107 -1 c90 -1 107 1 110
15 2 9 3 132 3 274 l-1 257 76 0 75 0 149 -298 148 -297 98 49 98 49 -125 251
c-69 138 -127 253 -129 255 -12 12 0 30 27 42 52 21 123 83 161 140 164 248
54 565 -230 665 -38 14 -94 17 -304 19 -175 1 -258 -2 -261 -9z m525 -230
c137 -66 169 -241 64 -350 -54 -55 -96 -66 -248 -66 l-124 0 1 213 c1 116 3
215 3 218 1 3 62 5 135 4 104 -1 140 -5 169 -19z"/>
<path d="M2015 6044 c-22 -13 -61 -36 -87 -50 -47 -27 -56 -41 -39 -59 5 -6
20 -30 33 -55 14 -25 86 -150 161 -278 76 -128 137 -237 137 -242 0 -5 -30
-60 -66 -122 -37 -62 -78 -133 -92 -158 -14 -25 -33 -57 -43 -72 -11 -14 -19
-28 -19 -31 0 -3 -27 -51 -61 -107 -55 -94 -66 -130 -40 -130 6 0 44 -21 86
-46 42 -25 77 -45 79 -43 2 2 35 59 75 127 39 67 103 177 142 243 l71 121 55
-93 c30 -52 65 -112 78 -134 72 -128 140 -242 149 -252 10 -11 61 14 173 83
l23 14 -23 38 c-13 20 -35 57 -49 82 -14 25 -64 110 -110 190 -47 80 -94 161
-105 180 -11 19 -30 52 -43 72 l-22 38 113 192 c62 106 141 241 175 300 l63
107 -92 56 c-50 30 -95 51 -99 47 -7 -7 -166 -275 -226 -382 -14 -25 -33 -58
-43 -74 l-17 -28 -70 118 c-38 66 -80 138 -93 160 -93 162 -125 214 -129 213
-3 0 -23 -11 -45 -25z"/>
<path d="M1426 4041 c-2 -3 -4 -52 -4 -108 l-1 -103 110 0 109 0 0 108 0 108
-105 1 c-58 0 -107 -2 -109 -6z"/>
<path d="M1860 3938 l0 -108 1640 0 1640 0 0 108 0 109 -1640 0 -1640 0 0
-109z"/>
<path d="M1422 3283 l3 -108 108 -3 107 -3 0 111 0 110 -110 0 -111 0 3 -107z"/>
<path d="M1860 3280 l0 -110 1640 0 1640 0 0 110 0 110 -1640 0 -1640 0 0
-110z"/>
<path d="M1430 2730 c-5 -3 -8 -53 -7 -110 l2 -105 108 0 108 0 -3 109 -3 110
-98 1 c-54 0 -102 -2 -107 -5z"/>
<path d="M1862 2625 l3 -110 1638 0 1637 0 0 110 0 110 -1640 0 -1641 0 3
-110z"/>
<path d="M3500 1421 l0 -109 1310 -1 c721 0 1311 3 1311 7 1 4 2 53 3 110 l2
102 -1313 0 -1313 0 0 -109z"/>
</g>
</svg>
